<svg xmlns="http://www.w3.org/2000/svg" width="390" height="270" fill="none" viewBox="0 0 390 270">
  <path fill="#DDE3E9" d="M40.6 206.95C-6.32 157.47 19.64 91.27 89.4 91.2c29.76-.03 55.45-3.57 82.33-19.55 38.4-22.83 61.8-59.35 112.06-53.18 74.8 9.1 107.08 83.41 78.47 148.67-19.71 44.93-60.98 67.34-106.6 76.66-63 12.86-166.7 16.1-215.07-36.86Z" opacity=".3"/>
  <g clip-path="url(#a)">
    <path fill="#006494" d="M103.14 80.35H55.17v170.3h47.97V80.35Z"/>
  </g>
  <path fill="#4B535A" d="M67.16 49.34v11.43c0 .59.33 1.13.86 1.43l10.28 5.7.08.05 5.06 2.8-.02-2.46.01-1.38v.02-.46c0-.27.15-.52.38-.67l.32-.18.16-.09 6-3.33c.53-.3.86-.84.86-1.43V49.34c0-.6-.33-1.14-.86-1.44l-10.28-5.7c-.53-.3-1.18-.3-1.71 0l-10.28 5.72c-.53.3-.86.84-.86 1.42Z"/>
  <path fill="#fff" d="M75 49.85a1.82 1.82 0 0 1 2.47 0c.5.45.66 1.1.5 1.69l4.72 2.64.03-.03a1.82 1.82 0 0 1 2.46 0c.74.68.74 1.8 0 2.48-.68.64-1.78.64-2.46 0a1.66 1.66 0 0 1-.47-1.78l-.01.01-4.7-2.6-.07.06a1.8 1.8 0 0 1-2.46 0 1.66 1.66 0 0 1 0-2.47Zm2.97 9.67 4.61-2.56-.86-.47-4.16 2.3A1.82 1.82 0 0 0 75 58.7c-.73.68-.73 1.8 0 2.48.7.64 1.79.64 2.47 0 .49-.45.65-1.08.5-1.66Z"/>
  <g clip-path="url(#b)">
    <path fill="#BDD9BF" d="M175.1 187.1h-47.97v63.55h47.97V187.1Z"/>
  </g>
  <path fill="#4B535A" d="M155.2 160.93a6.39 6.39 0 0 0-4.46-1.71c-3.03 0-5.6 2-6.52 4.7a6.7 6.7 0 0 0 0 4.37c.92 2.7 3.5 4.7 6.53 4.7 1.56 0 2.9-.4 3.95-1.09a5.27 5.27 0 0 0 2.32-3.46h-6.28v-4.39h10.97c.13.76.2 1.54.2 2.31 0 3.47-1.27 6.4-3.47 8.38a11.26 11.26 0 0 1-7.7 2.76c-4.4 0-8.41-2.43-10.39-6.28a11.2 11.2 0 0 1 0-10.23c1.98-3.85 6-6.28 10.4-6.28a11.3 11.3 0 0 1 7.77 2.97l-3.32 3.25Z"/>
  <g clip-path="url(#c)">
    <path fill="#FFC857" d="M247.06 231.47h-47.98v19.18h47.98v-19.19Z"/>
  </g>
  <path fill="#4B535A" fill-rule="evenodd" d="M236.63 217.76c-3.67 2.68-9 4.11-13.6 4.11a24.76 24.76 0 0 1-16.6-6.27c-.35-.3-.04-.72.38-.48a33.36 33.36 0 0 0 29.3 1.8c.61-.27 1.13.4.52.84Z" clip-rule="evenodd"/>
  <path fill="#4B535A" fill-rule="evenodd" d="M238.16 216.03c-.47-.6-3.1-.28-4.29-.14-.36.04-.41-.27-.09-.49 2.1-1.46 5.55-1.04 5.95-.55.4.5-.1 3.91-2.08 5.54-.3.25-.59.12-.46-.21.45-1.1 1.44-3.55.97-4.15Zm-12.41-9.99c0 1.44.03 2.63-.7 3.9-.6 1.04-1.55 1.68-2.6 1.68-1.45 0-2.3-1.08-2.3-2.67 0-3.14 2.88-3.7 5.6-3.7v.8Zm3.79 8.98a.8.8 0 0 1-.89.08c-1.25-1.01-1.47-1.48-2.16-2.45-2.06 2.06-3.52 2.68-6.2 2.68-3.16 0-5.61-1.91-5.61-5.74a6.25 6.25 0 0 1 4-6.02c2.04-.88 4.9-1.03 7.07-1.28v-.47c0-.88.07-1.91-.46-2.67-.46-.68-1.33-.96-2.11-.96-1.43 0-2.7.72-3.02 2.21-.06.33-.31.66-.65.68l-3.65-.39c-.3-.06-.65-.3-.56-.77.84-4.33 4.83-5.63 8.4-5.63 1.84 0 4.23.47 5.67 1.83 1.83 1.67 1.65 3.9 1.65 6.33v5.74c0 1.72.73 2.48 1.42 3.41.24.34.3.73-.02.98-.76.63-2.13 1.8-2.88 2.45v-.01Z" clip-rule="evenodd"/>
  <g clip-path="url(#d)">
    <path fill="#DA5E5C" d="M319.01 247.06h-47.97v3.6h47.97v-3.6Z"/>
  </g>
  <path fill="#4B535A" d="m291.15 217.85-9.31 1.28v7.7h9.31v-8.98Zm13.47 8.9v-10.88l-6.17.9-6.17.9v9.08h12.34Zm-13.47 1.02h-9.31v7.7l9.31 1.3v-9Zm13.47.13h-12.34v9.02l12.34 1.74V227.9Z"/>
  <path fill="#0F2B46" d="M151.22 132.63c13.45 0 22.85-8.6 22.85-21.12v-.09c0-11.55-8.35-19.94-19.94-19.94-6.12 0-11.13 2.4-13.8 6.5h-.2l1.69-18.35h28.67v-8.9h-37.36l-2.91 35.38h9.49a11.44 11.44 0 0 1 2.86-3.45 13.4 13.4 0 0 1 8.77-3c7.13 0 12.23 4.98 12.23 11.93v.09c0 7.12-5.02 12.1-12.27 12.1-6.4 0-11.05-3.92-11.93-9.02l-.04-.3h-10.2l.04.55c.8 10.08 9.4 17.62 22.05 17.62Zm26.52-1.05h11.21l9.24-16.02h.25l9.28 16.02h11.46l-14.25-22.6 14.38-22.1h-11.47l-8.9 15.7h-.25l-8.98-15.7h-11.8l14.29 22.4-14.46 22.3Z"/>
  <defs>
    <clipPath id="a">
      <path fill="#fff" d="M0 0h47.97v170.3H0z" transform="translate(55.17 80.35)"/>
    </clipPath>
    <clipPath id="b">
      <path fill="#fff" d="M0 0h47.97v63.56H0z" transform="translate(127.13 187.1)"/>
    </clipPath>
    <clipPath id="c">
      <path fill="#fff" d="M0 0h47.97v19.19H0z" transform="translate(199.08 231.47)"/>
    </clipPath>
    <clipPath id="d">
      <path fill="#fff" d="M0 0h47.97v3.6H0z" transform="translate(271.04 247.06)"/>
    </clipPath>
  </defs>
</svg>
